HIERARCHY
ROOT Hips
{
 OFFSET 0.000000 0.000000 0.000000
 CHANNELS 6 Xposition Yposition Zposition Yrotation Xrotation Zrotation
 JOINT Chest
 {
  OFFSET 0.000000 9.585900 0.002600
  CHANNELS 3 Yrotation Xrotation Zrotation
  JOINT Chest2
  {
   OFFSET 0.000000 9.601200 -0.005300
   CHANNELS 3 Yrotation Xrotation Zrotation
   JOINT Chest3
   {
    OFFSET 0.000000 9.561800 0.000000
    CHANNELS 3 Yrotation Xrotation Zrotation
    JOINT Chest4
    {
     OFFSET 0.000000 9.552100 0.000000
     CHANNELS 3 Yrotation Xrotation Zrotation
     JOINT Neck
     {
      OFFSET 0.000000 14.453000 0.000000
      CHANNELS 3 Yrotation Xrotation Zrotation
      JOINT Head
      {
       OFFSET 0.000000 8.936500 -0.011300
       CHANNELS 3 Yrotation Xrotation Zrotation
       End Site
       {
        OFFSET 0.000000 17.073600 -0.006000
       }
      }
     }
     JOINT RightCollar
     {
      OFFSET -2.921100 9.558500 0.000000
      CHANNELS 3 Yrotation Xrotation Zrotation
      JOINT RightShoulder
      {
       OFFSET -13.519700 0.000000 0.000000
       CHANNELS 3 Yrotation Xrotation Zrotation
       JOINT RightElbow
       {
        OFFSET 0.000000 -29.696600 0.000000
        CHANNELS 3 Yrotation Xrotation Zrotation
        JOINT RightWrist
        {
         OFFSET 0.000000 -24.004700 0.000000
         CHANNELS 3 Yrotation Xrotation Zrotation
         End Site
         {
          OFFSET 0.000000 -17.728500 0.000000
         }
        }
       }
      }
     }
     JOINT LeftCollar
     {
      OFFSET 2.921100 9.558500 0.000000
      CHANNELS 3 Yrotation Xrotation Zrotation
      JOINT LeftShoulder
      {
       OFFSET 13.519700 0.000000 0.000000
       CHANNELS 3 Yrotation Xrotation Zrotation
       JOINT LeftElbow
       {
        OFFSET 0.000000 -29.696600 0.000000
        CHANNELS 3 Yrotation Xrotation Zrotation
        JOINT LeftWrist
        {
         OFFSET 0.000000 -24.004700 0.000000
         CHANNELS 3 Yrotation Xrotation Zrotation
         End Site
         {
          OFFSET 0.000000 -17.728500 0.000000
         }
        }
       }
      }
     }
    }
   }
  }
 }
 JOINT RightHip
 {
  OFFSET -7.771700 -0.012900 -0.001300
  CHANNELS 3 Yrotation Xrotation Zrotation
  JOINT RightKnee
  {
   OFFSET 0.000000 -40.869800 0.001200
   CHANNELS 3 Yrotation Xrotation Zrotation
   JOINT RightAnkle
   {
    OFFSET 0.000000 -39.717900 0.002100
    CHANNELS 3 Yrotation Xrotation Zrotation
    JOINT RightToe
    {
     OFFSET 0.000000 -4.965400 11.033500
     CHANNELS 3 Yrotation Xrotation Zrotation
     End Site
     {
      OFFSET 0.000000 -1.423100 5.872300
     }
    }
   }
  }
 }
 JOINT LeftHip
 {
  OFFSET 7.771700 -0.012900 -0.001300
  CHANNELS 3 Yrotation Xrotation Zrotation
  JOINT LeftKnee
  {
   OFFSET 0.000000 -40.869800 0.001200
   CHANNELS 3 Yrotation Xrotation Zrotation
   JOINT LeftAnkle
   {
    OFFSET 0.000000 -39.717900 0.002100
    CHANNELS 3 Yrotation Xrotation Zrotation
    JOINT LeftToe
    {
     OFFSET 0.000000 -4.965400 11.033500
     CHANNELS 3 Yrotation Xrotation Zrotation
     End Site
     {
      OFFSET 0.000000 -1.423100 5.872300
     }
    }
   }
  }
 }
}
MOTION
Frames: 7
Frame Time: 0.008333
0.000000 85.388000 0.000000 0.000000 -5.767877 0.000000 0.000000 11.653817 0.000000 0.000000 -5.885947 0.000000 0.000000 -0.000000 0.000000 0.000000 -0.000000 0.000000 0.000000 12.528835 0.000000 0.000000 0.711642 0.000000 0.000000 -0.000000 0.000000 0.000000 0.000000 -90.000000 0.000000 -2.309062 0.000000 0.000000 2.309062 0.000000 0.000000 -0.000000 0.000000 0.000000 -0.000000 90.000000 0.000000 -2.309062 0.000000 0.000000 2.309062 0.000000 0.000000 8.520406 0.000000 0.000000 1.905762 0.000000 -0.000000 -4.658285 0.000000 0.000000 -0.000000 0.000000 0.000000 8.520406 0.000000 0.000000 1.905762 0.000000 -0.000000 -4.658285 0.000000 0.000000 -0.000000 0.000000
-6.893115 55.254229 32.529800 179.709284 -31.104873 -11.592972 -0.618871 13.527085 5.813725 -0.274391 7.963387 1.942835 -0.326010 9.907144 2.403717 -0.295765 7.916126 1.927831 3.114116 18.503391 0.241203 3.248140 -6.171936 -0.454296 1.023139 1.405996 -2.353142 -9.994719 -17.122920 6.309302 25.692453 -73.063558 -8.876125 9.632521 -7.286760 -18.584921 -9.950725 3.328357 -3.806812 7.849847 -2.848959 0.426827 -92.908957 -78.772374 96.992441 12.533821 -16.314143 5.167322 -16.449335 -34.250652 5.960632 50.639229 84.547433 46.453600 0.620372 -20.002976 2.440317 -1.258128 2.765752 -0.562233 -16.415743 -46.523296 17.374593 171.614642 79.716310 167.238415 -1.763063 -16.951320 1.418002 -0.933124 -1.666967 -0.409107
-6.893750 55.253131 32.523115 179.722624 -31.025311 -11.570945 -0.630683 13.492028 5.806506 -0.287208 7.930788 1.937267 -0.336099 9.890809 2.394592 -0.311617 7.875304 1.930828 3.171161 18.463532 0.214697 3.315002 -6.213804 -0.495441 0.956254 1.392346 -2.393982 -9.915134 -16.885449 6.289986 25.802586 -73.118467 -8.894988 9.625627 -7.309964 -18.644791 -9.952482 3.340053 -3.828459 7.884887 -2.796259 0.384054 -93.095634 -78.648435 97.218941 12.597682 -16.370407 5.120967 -16.451610 -34.332100 5.958504 50.752456 84.565570 46.561910 0.603244 -20.020494 2.452390 -1.251353 2.762295 -0.558922 -16.474801 -46.587321 17.402974 171.660490 79.723817 167.248953 -1.782319 -16.966429 1.421179 -0.922863 -1.650424 -0.404079
-6.893907 55.253173 32.513075 179.749373 -30.949264 -11.554447 -0.631404 13.487858 5.820562 -0.325305 7.864016 1.907238 -0.344529 9.868163 2.400006 -0.326546 7.852733 1.927716 3.232569 18.421852 0.188955 3.386310 -6.257429 -0.536782 0.914394 1.390723 -2.421037 -9.853321 -16.673662 6.256554 25.880117 -73.165295 -8.882899 9.628608 -7.359982 -18.716124 -9.952162 3.346639 -3.852658 7.915912 -2.749377 0.342785 -93.278494 -78.590710 97.416505 12.617069 -16.418616 5.070548 -16.447211 -34.408364 5.958225 50.839828 84.596604 46.646542 0.565640 -20.035275 2.466854 -1.231620 2.748438 -0.542811 -16.524741 -46.652883 17.410124 171.668578 79.725762 167.238600 -1.792586 -16.970147 1.417711 -0.915741 -1.642372 -0.402921
-6.895378 55.253872 32.500005 179.782040 -30.880412 -11.530003 -0.651231 13.471967 5.810427 -0.344837 7.829170 1.896248 -0.367685 9.823972 2.409245 -0.335725 7.845113 1.914806 3.268527 18.418430 0.169059 3.483718 -6.346785 -0.597477 0.878560 1.392043 -2.442444 -9.807276 -16.472316 6.217589 26.002799 -73.228364 -8.917516 9.625752 -7.429539 -18.791319 -9.961468 3.324094 -3.886253 7.952290 -2.689787 0.312363 -93.354828 -78.545471 97.492576 12.630336 -16.469157 5.010901 -16.457121 -34.475123 5.937620 51.081941 84.613384 46.873325 0.550643 -20.063145 2.490332 -1.240884 2.742285 -0.546195 -16.568072 -46.711329 17.400865 171.666254 79.727175 167.214057 -1.810582 -16.970155 1.419891 -0.908057 -1.644412 -0.400281
-6.895183 55.253884 32.487613 179.802060 -30.803847 -11.507726 -0.664464 13.437177 5.806226 -0.347852 7.822473 1.913195 -0.394487 9.779467 2.389619 -0.345847 7.838068 1.904313 3.337010 18.328791 0.144129 3.537162 -6.382102 -0.633249 0.836627 1.381319 -2.449559 -9.759736 -16.279587 6.171125 26.173245 -73.291252 -8.995556 9.623398 -7.430679 -18.825643 -9.980590 3.233957 -3.908816 7.990529 -2.591671 0.286839 -93.383840 -78.503338 97.518800 12.623998 -16.513353 4.941301 -16.465456 -34.548814 5.927725 51.282794 84.628902 47.065863 0.536620 -20.091685 2.509440 -1.243734 2.740689 -0.550139 -16.617298 -46.776062 17.410777 171.662195 79.726731 167.185861 -1.826113 -16.973282 1.427165 -0.905582 -1.644951 -0.403772
-6.893224 55.253081 32.476342 179.814968 -30.720131 -11.492148 -0.668923 13.392785 5.814997 -0.362886 7.797313 1.906322 -0.402276 9.756814 2.396019 -0.359389 7.830214 1.890226 3.404585 18.232421 0.119674 3.580995 -6.425965 -0.671382 0.793731 1.377380 -2.451060 -9.711165 -16.096930 6.124428 26.389843 -73.352302 -9.121213 9.658854 -7.338963 -18.799366 -9.982104 3.202816 -3.918372 8.004452 -2.559687 0.242201 -93.424753 -78.458835 97.566045 12.584966 -16.542802 4.863539 -16.477643 -34.627930 5.931353 51.426668 84.645783 47.206156 0.532473 -20.118421 2.516106 -1.242209 2.741110 -0.549108 -16.663827 -46.851585 17.426691 171.635482 79.722176 167.146214 -1.824471 -16.974523 1.429631 -0.910046 -1.643576 -0.409372
